<svg width="156" height="26" viewBox="0 0 156 26" fill="none" xmlns="http://www.w3.org/2000/svg">
<g clip-path="url(#clip0_7_1234)">
<path d="M38.1399 2.96997C36.6299 2.96997 35.2599 3.57997 34.2799 4.56997C33.2899 5.55997 32.6799 6.92997 32.6799 8.42997C32.6799 9.75997 33.1599 10.98 33.9499 11.93H33.6699C33.4099 11.93 33.1599 12.03 32.9799 12.22C32.7999 12.4 32.6899 12.66 32.6899 12.91V21.87C32.6899 22.41 33.1299 22.85 33.6699 22.85C34.2099 22.85 34.6499 22.41 34.6499 21.87V13.89H38.1499C39.6599 13.89 41.0299 13.28 42.0099 12.29C42.9999 11.3 43.6099 9.92997 43.6099 8.42997C43.6099 6.92997 42.9999 5.54997 42.0099 4.56997C41.0199 3.57997 39.6499 2.96997 38.1499 2.96997H38.1399ZM40.6099 10.91C39.9699 11.54 39.1099 11.93 38.1399 11.93C37.1699 11.93 36.2999 11.54 35.6699 10.91C35.0399 10.27 34.6499 9.40997 34.6499 8.43997C34.6499 7.46997 35.0399 6.59997 35.6699 5.96997C36.3099 5.33997 37.1699 4.94997 38.1399 4.94997C39.1099 4.94997 39.9799 5.33997 40.6099 5.96997C41.2399 6.60997 41.6299 7.46997 41.6299 8.43997C41.6299 9.40997 41.2399 10.28 40.6099 10.91Z" fill="black"/>
<path d="M70.1199 2.96997C67.3799 2.96997 64.8799 4.07997 63.0899 5.87997C61.2899 7.67997 60.1799 10.17 60.1799 12.91C60.1799 15.65 61.2899 18.15 63.0899 19.94C64.8899 21.74 67.3799 22.85 70.1199 22.85C72.8599 22.85 75.3599 21.74 77.1499 19.94C78.9499 18.14 80.0599 15.65 80.0599 12.91C80.0599 10.17 78.9499 7.66997 77.1499 5.87997C75.3499 4.07997 72.8599 2.96997 70.1199 2.96997ZM75.7599 18.56C74.3099 20.01 72.3199 20.9 70.1199 20.9C67.9199 20.9 65.9199 20.01 64.4799 18.56C63.0299 17.11 62.1399 15.12 62.1399 12.92C62.1399 10.72 63.0299 8.71997 64.4799 7.27997C65.9299 5.82997 67.9199 4.93997 70.1199 4.93997C72.3199 4.93997 74.3199 5.82997 75.7599 7.27997C77.2099 8.72997 78.0999 10.72 78.0999 12.92C78.0999 15.12 77.2099 17.12 75.7599 18.56Z" fill="black"/>
<path d="M93.1199 4.93998C93.6599 4.93998 94.0999 4.49998 94.0999 3.95998C94.0999 3.41998 93.6599 2.97998 93.1199 2.97998C90.3799 2.97998 87.8799 4.08998 86.0899 5.88998C84.2899 7.68998 83.1799 10.18 83.1799 12.92C83.1799 15.66 84.2899 18.16 86.0899 19.95C87.8899 21.75 90.3799 22.86 93.1199 22.86C93.6599 22.86 94.0999 22.42 94.0999 21.88C94.0999 21.34 93.6599 20.9 93.1199 20.9C90.9099 20.9 88.9199 20.01 87.4799 18.56C86.0299 17.11 85.1399 15.12 85.1399 12.92C85.1399 10.72 86.0299 8.71998 87.4799 7.27998C88.9299 5.82998 90.9199 4.93998 93.1199 4.93998Z" fill="black"/>
<path d="M50.06 13.9H52.17C53.68 13.9 55.05 13.29 56.03 12.3C57.02 11.31 57.63 9.93998 57.63 8.43998C57.63 6.93998 57.02 5.55998 56.03 4.57998C55.04 3.58998 53.67 2.97998 52.17 2.97998C50.67 2.97998 49.29 3.58998 48.31 4.57998C47.32 5.56998 46.71 6.93998 46.71 8.43998C46.71 9.76998 47.19 10.99 47.98 11.94H47.7L47.51 11.96C47.39 11.99 47.27 12.03 47.16 12.11L47.01 12.23L46.89 12.38C46.82 12.49 46.77 12.61 46.74 12.73L46.72 12.92V21.88C46.72 22.42 47.16 22.86 47.7 22.86C48.24 22.86 48.68 22.42 48.68 21.88V15.29L55.96 22.58C56.34 22.96 56.97 22.96 57.35 22.58C57.73 22.2 57.73 21.57 57.35 21.19L50.06 13.9ZM48.67 8.43998C48.67 7.46998 49.06 6.59998 49.69 5.96998C50.33 5.33998 51.19 4.94998 52.16 4.94998C53.13 4.94998 54 5.33998 54.63 5.96998C55.26 6.60998 55.65 7.46998 55.65 8.43998C55.65 9.40998 55.26 10.28 54.63 10.91C53.99 11.54 53.13 11.93 52.16 11.93C51.19 11.93 50.32 11.54 49.69 10.91C49.06 10.27 48.67 9.40998 48.67 8.43998Z" fill="black"/>
<path d="M125.9 13.9C127.22 13.9 128.55 13.46 129.59 12.55C130.11 12.09 130.55 11.52 130.86 10.84C131.17 10.16 131.34 9.37998 131.36 8.51998V8.47998C131.36 7.61998 131.17 6.83998 130.86 6.15998C130.4 5.13998 129.64 4.35998 128.76 3.84998C127.88 3.33998 126.88 3.09998 125.89 3.09998C124.57 3.09998 123.23 3.52998 122.19 4.44998C121.67 4.90998 121.23 5.47998 120.92 6.15998C120.61 6.83998 120.44 7.61998 120.42 8.47998V8.51998C120.43 9.37998 120.61 10.16 120.92 10.84C121.1 11.25 121.33 11.61 121.6 11.94H121.41L121.22 11.96C121.1 11.99 120.98 12.03 120.87 12.11L120.72 12.23L120.6 12.38C120.53 12.49 120.48 12.61 120.45 12.73L120.43 12.92V21.88C120.43 22.42 120.87 22.86 121.41 22.86C121.95 22.86 122.39 22.42 122.39 21.88V15.29L129.67 22.58C130.05 22.96 130.68 22.96 131.06 22.58C131.44 22.2 131.44 21.57 131.06 21.19L123.77 13.9H125.9ZM123.49 11.08C123.17 10.8 122.91 10.46 122.72 10.03C122.53 9.60998 122.41 9.10998 122.4 8.49998C122.41 7.88998 122.53 7.38998 122.72 6.96998C123.01 6.33998 123.45 5.87998 124.01 5.54998C124.56 5.22998 125.23 5.05998 125.9 5.05998C126.79 5.05998 127.67 5.35998 128.3 5.91998C128.62 6.19998 128.88 6.53998 129.07 6.96998C129.26 7.38998 129.38 7.88998 129.39 8.49998C129.39 9.10998 129.26 9.60998 129.07 10.03C128.78 10.66 128.34 11.12 127.78 11.45C127.23 11.77 126.56 11.94 125.89 11.94C125 11.94 124.12 11.64 123.49 11.08Z" fill="black"/>
<path d="M143.93 12.3C144.92 11.31 145.53 9.93998 145.53 8.43998C145.53 6.93998 144.92 5.55998 143.93 4.57998C142.94 3.58998 141.57 2.97998 140.07 2.97998C138.57 2.97998 137.19 3.58998 136.21 4.57998C135.22 5.56998 134.61 6.93998 134.61 8.43998C134.61 9.76998 135.09 10.99 135.88 11.94H135.6L135.41 11.96C135.29 11.99 135.17 12.03 135.06 12.11L134.91 12.23L134.79 12.38C134.72 12.49 134.67 12.61 134.64 12.73L134.62 12.92V21.88C134.62 22.42 135.06 22.86 135.6 22.86C136.14 22.86 136.58 22.42 136.58 21.88V15.29L143.87 22.58C144.25 22.96 144.88 22.96 145.26 22.58C145.64 22.2 145.64 21.57 145.26 21.19L137.97 13.9H140.08C141.59 13.9 142.96 13.29 143.94 12.3H143.93ZM137.59 10.91C136.96 10.27 136.57 9.40998 136.57 8.43998C136.57 7.46998 136.96 6.59998 137.59 5.96998C138.23 5.33998 139.09 4.94998 140.06 4.94998C141.03 4.94998 141.9 5.33998 142.53 5.96998C143.16 6.60998 143.55 7.46998 143.55 8.43998C143.55 9.40998 143.16 10.28 142.53 10.91C141.89 11.54 141.03 11.93 140.06 11.93C139.09 11.93 138.22 11.54 137.59 10.91Z" fill="black"/>
<path d="M116.07 11.93C115.53 11.93 115.09 12.37 115.09 12.91C115.09 15.12 114.2 17.11 112.75 18.55C111.3 20 109.31 20.89 107.11 20.89C104.91 20.89 102.91 20 101.47 18.55C100.02 17.1 99.1299 15.11 99.1299 12.91C99.1299 12.37 98.6899 11.93 98.1499 11.93C97.6099 11.93 97.1699 12.37 97.1699 12.91C97.1699 15.65 98.2799 18.15 100.08 19.94C101.88 21.74 104.37 22.85 107.11 22.85C109.85 22.85 112.35 21.74 114.14 19.94C115.94 18.14 117.05 15.65 117.05 12.91C117.05 12.37 116.61 11.93 116.07 11.93Z" fill="black"/>
<path d="M98.1399 8.27998C98.6799 8.27998 99.1199 7.83998 99.1199 7.29998V3.95998C99.1199 3.41998 98.6799 2.97998 98.1399 2.97998C97.5999 2.97998 97.1599 3.41998 97.1599 3.95998V7.29998C97.1599 7.83998 97.5999 8.27998 98.1399 8.27998Z" fill="black"/>
<path d="M116.07 2.96997C115.53 2.96997 115.09 3.40997 115.09 3.94997V7.28997C115.09 7.82997 115.53 8.26997 116.07 8.26997C116.61 8.26997 117.05 7.82997 117.05 7.28997V3.94997C117.05 3.40997 116.61 2.96997 116.07 2.96997Z" fill="black"/>
<path d="M154.23 13.9C154.77 13.9 155.21 13.46 155.21 12.92C155.21 12.38 154.77 11.94 154.23 11.94H150.73V4.93998H154.23C154.77 4.93998 155.21 4.49998 155.21 3.95998C155.21 3.41998 154.77 2.97998 154.23 2.97998H149.75C149.49 2.97998 149.24 3.07998 149.06 3.26998C148.88 3.44998 148.77 3.70998 148.77 3.95998V21.88L148.79 22.07C148.82 22.2 148.87 22.32 148.94 22.42C149.08 22.63 149.3 22.79 149.56 22.84H149.59L149.76 22.86H154.24C154.78 22.86 155.22 22.42 155.22 21.88C155.22 21.34 154.78 20.9 154.24 20.9H150.74V13.9H154.24H154.23Z" fill="black"/>
<path d="M18.5 0.68H18.49C17.04 0.22 15.57 0 14.13 0C7.88 0 2.16 4.18 0.48 10.5C0.16 11.72 0 12.94 0 14.15C0 18.53 2.04 22.63 5.44 25.28C5.91 25.65 6.48 25.83 7.03 25.83C7.58 25.83 8.12 25.65 8.57 25.33C9.02 25 9.37 24.51 9.52 23.92L10.76 19.27C10.79 19.13 10.92 19.04 11.05 19.04H11.13C11.48 19.14 11.83 19.19 12.18 19.19C13.8 19.19 15.34 18.22 15.92 16.61C16.08 16.16 16.16 15.71 16.16 15.26C16.16 13.78 15.33 12.43 14.01 11.75C13.77 11.63 13.59 11.45 13.49 11.26L13.43 11.15C13.32 10.94 13.28 10.74 13.28 10.55C13.28 10.22 13.42 9.89 13.65 9.65C13.88 9.41 14.18 9.27 14.55 9.26H14.71C16.2 9.44 17.58 10.29 18.38 11.68C18.83 12.46 19.04 13.3 19.04 14.13C19.04 15.49 18.48 16.81 17.45 17.75C16.9 18.25 16.6 18.96 16.6 19.67C16.6 20.11 16.71 20.55 16.95 20.95L19.03 24.53C19.51 25.36 20.38 25.82 21.26 25.82C21.8 25.82 22.37 25.64 22.83 25.28C24.04 24.34 25.1 23.2 25.96 21.89C26.82 20.58 27.48 19.1 27.87 17.5C28.14 16.38 28.28 15.26 28.28 14.15C28.28 8.15 24.43 2.6 18.5 0.68ZM25.92 17.02C25.24 19.8 23.67 22.1 21.59 23.71C21.48 23.79 21.37 23.83 21.24 23.83C21.04 23.83 20.85 23.73 20.74 23.54L18.66 19.95C18.61 19.86 18.59 19.77 18.58 19.67C18.58 19.51 18.65 19.35 18.78 19.23C20.23 17.9 21.03 16.04 21.03 14.13C21.03 12.96 20.73 11.76 20.1 10.68C18.97 8.72 17.01 7.53 14.93 7.29C14.8 7.27 14.67 7.27 14.54 7.27C13.61 7.27 12.78 7.67 12.2 8.27C11.62 8.87 11.27 9.68 11.27 10.56C11.27 11.07 11.39 11.6 11.66 12.1L11.72 12.21C12.04 12.81 12.54 13.26 13.1 13.55C13.75 13.88 14.16 14.56 14.16 15.28C14.16 15.5 14.12 15.72 14.04 15.95C13.77 16.72 13.01 17.21 12.18 17.21C12 17.21 11.83 17.19 11.65 17.14C11.45 17.09 11.25 17.06 11.06 17.06C10.04 17.06 9.11 17.74 8.83 18.77L7.59 23.42C7.55 23.56 7.48 23.66 7.38 23.73C7.28 23.8 7.15 23.85 7.03 23.84C6.91 23.84 6.79 23.8 6.67 23.71C3.76 21.44 2 17.9 2 14.15C2 13.12 2.13 12.07 2.41 11.02C3.85 5.59 8.77 2 14.13 2C15.37 2 16.63 2.19 17.88 2.59C22.95 4.22 26.27 9.01 26.27 14.15C26.27 15.1 26.16 16.06 25.92 17.02Z" fill="black"/>
<path d="M26.27 14.15C26.27 15.1 26.16 16.06 25.92 17.02C25.24 19.8 23.67 22.1 21.59 23.71C21.48 23.79 21.37 23.83 21.24 23.83C21.04 23.83 20.85 23.73 20.74 23.54L18.66 19.95C18.61 19.86 18.59 19.77 18.58 19.67C18.58 19.51 18.65 19.35 18.78 19.23C20.23 17.9 21.03 16.04 21.03 14.13C21.03 12.96 20.73 11.76 20.1 10.68C18.97 8.72 17.01 7.53 14.93 7.29C14.8 7.27 14.67 7.27 14.54 7.27C13.61 7.27 12.78 7.67 12.2 8.27C11.62 8.87 11.27 9.68 11.27 10.56C11.27 11.07 11.39 11.6 11.66 12.1L11.72 12.21C12.04 12.81 12.54 13.26 13.1 13.55C13.75 13.88 14.16 14.56 14.16 15.28C14.16 15.5 14.12 15.72 14.04 15.95C13.77 16.72 13.01 17.21 12.18 17.21C12 17.21 11.83 17.19 11.65 17.14C11.45 17.09 11.25 17.06 11.06 17.06C10.04 17.06 9.11 17.74 8.83 18.77L7.59 23.42C7.55 23.56 7.48 23.66 7.38 23.73C7.28 23.8 7.15 23.85 7.03 23.84C6.91 23.84 6.79 23.8 6.67 23.71C3.76 21.44 2 17.9 2 14.15C2 13.12 2.13 12.07 2.41 11.02C3.85 5.59 8.77 2 14.13 2C15.37 2 16.63 2.19 17.88 2.59C22.95 4.22 26.27 9.01 26.27 14.15Z" fill="#FF9A43"/>
</g>
<defs>
<clipPath id="clip0_7_1234">
<rect width="155.22" height="25.83" fill="white"/>
</clipPath>
</defs>
</svg>
